<!-- here is a big, empty SVG! make it into something interesting! -->
<svg xmlns="http://www.w3.org/2000/svg" xmlns:xlink="http://www.w3.org/1999/xlink" height="600px" width="600px">
    <!-- you can delete this big rectangle - it's just a placeholder -->
    <defs>
    <!-- Define a path that includes:
         • An arc (A command)
         • A quadratic Bezier curve (Q command)
         • A cubic Bezier curve (C command)
    -->

    <g id="water">
        <rect x="-100" y="100" height="4000" width="4000" fill="blue"/>
        </g>

    <path id="head" d="
      M 200,100
      Q 225,50 250,100
      Q 100, 100, 0, 100
      " fill="green" stroke="BLACK" stroke-width="4"/>

    <path id="shell" d="
      M 0,100
      Q 70,0 200,100
      Q 100, 100, 0, 100
      " fill="#7F502D" stroke="BLACK" stroke-width="4"/>

      <path id="tail" d="
        M 0,100
        A 20 30 0 0 0 -20,120
        Q -15,125 -10,120
        C -5,115 0,110 0,100
      " fill="green" stroke="black" stroke-width="4"/>

      <circle id="eye" cx="0" cy="0" r="2.5" fill="black" stroke="black" stroke-width="2" />

  </defs>

  <!-- Instance 2: Re-uses the same path with a vertical offset and different stroke color -->
  <use transform="translate(40,1)" stroke="black" xlink:href="#shell"/>
  <use transform="translate(0,3)" stroke="blue" xlink:href="#water" />
  <use transform="translate(40,1)" stroke="black" xlink:href="#head"/>
  <use transform="scale(1, 1) rotate(90, 40, 100) translate(40,0)" stroke="black" xlink:href="#tail"/>
  <use transform="translate(270,85)" stroke="black" xlink:href="#eye"/>
</svg>

